<svg height="512" viewBox="0 0 64 64" width="512" xmlns="http://www.w3.org/2000/svg"><g id="Layer_20" data-name="Layer 20"><path d="m2 36.884a18.642 18.642 0 0 0 24.923-17.47 18.48 18.48 0 0 0 -5.752-13.414 20.069 20.069 0 1 1 -19.171 30.884z" fill="#fac600"/><path d="m19.648 45.961a20.035 20.035 0 0 0 3.946-39.516 18.446 18.446 0 0 1 5.329 12.969 18.59 18.59 0 0 1 -18.623 18.56c-.362 0-.717-.026-1.075-.047-.308.016-.612.047-.925.047a18.691 18.691 0 0 1 -3.826-.409 20.111 20.111 0 0 0 15.174 8.396z" fill="#fed402"/><path d="m29.42 38.46a13.871 13.871 0 0 1 12.936-8.46c7.658 0 13.866 5.928 13.866 13.241a12.681 12.681 0 0 1 -.809 4.468 7.3 7.3 0 0 1 6.587 7.119 7.347 7.347 0 0 1 -7.511 7.172h-36.978a7.347 7.347 0 0 1 -7.511-7.172 7.253 7.253 0 0 1 5.777-6.981h.031q-.03-.367-.03-.742a9.608 9.608 0 0 1 9.822-9.381 10.178 10.178 0 0 1 3.822.737z" fill="#b3dafe"/><path d="m10.169 56.336a7.44 7.44 0 0 0 7.342 5.664h36.978a7.439 7.439 0 0 0 7.342-5.666 7.388 7.388 0 0 0 -6.418-5.625 12.656 12.656 0 0 0 .7-2.885q-.343-.073-.7-.115a12.643 12.643 0 0 0 .712-2.981 13.65 13.65 0 0 0 -13.769-11.728 13.871 13.871 0 0 0 -12.936 8.46 10.178 10.178 0 0 0 -3.822-.737 9.608 9.608 0 0 0 -9.82 9.377q0 .375.03.742h-.031a7.346 7.346 0 0 0 -5.608 5.494z" fill="#7d68e9"/><path d="m28.585 43.241h-.118a.95.95 0 0 1 -.94-1.03 13.613 13.613 0 0 1 .615-3.158.95.95 0 0 1 1.258-.6l.109.045a.954.954 0 0 1 .531 1.19 11.6 11.6 0 0 0 -.516 2.651.954.954 0 0 1 -.939.902z" fill="#b3dafe"/><path d="m33.584 41.136-.111-.038a.95.95 0 0 1 -.551-1.3 10 10 0 0 1 8.025-5.744.95.95 0 0 1 1.053.94v.118a.924.924 0 0 1 -.814.928 8 8 0 0 0 -6.461 4.624.924.924 0 0 1 -1.141.472z" fill="#fff"/><path d="m45 2 .334 1.312a3.37 3.37 0 0 0 2.329 2.436l1.337.328-1.337.324a3.17 3.17 0 0 0 -2.329 2.284l-.334 1.316-.334-1.312a3.17 3.17 0 0 0 -2.329-2.288l-1.337-.324 1.337-.328a3.37 3.37 0 0 0 2.329-2.436z" fill="#fee567"/><path d="m45.334 4.312-.334-1.312-.334 1.312a3.466 3.466 0 0 1 -1.839 2.259 3.153 3.153 0 0 1 1.839 2.117l.334 1.312.334-1.312a3.153 3.153 0 0 1 1.839-2.117 3.466 3.466 0 0 1 -1.839-2.259z" fill="#ffee9a"/><path d="m58 17 .334 1.337a3.2 3.2 0 0 0 2.329 2.329l1.337.334-1.337.334a3.2 3.2 0 0 0 -2.329 2.329l-.334 1.337-.334-1.337a3.2 3.2 0 0 0 -2.329-2.329l-1.337-.334 1.337-.334a3.2 3.2 0 0 0 2.329-2.329z" fill="#fee567"/><path d="m58 17 .334 1.337a3.2 3.2 0 0 0 2.329 2.329l1.337.334-1.337.334a3.2 3.2 0 0 0 -2.329 2.329l-.334 1.337-.334-1.337a3.2 3.2 0 0 0 -2.329-2.329l-1.337-.334 1.337-.334a3.2 3.2 0 0 0 2.329-2.329z" fill="#fee567"/><path d="m58.334 19.337-.334-1.337-.334 1.337a3.2 3.2 0 0 1 -1.848 2.163 3.2 3.2 0 0 1 1.848 2.163l.334 1.337.334-1.337a3.2 3.2 0 0 1 1.848-2.163 3.2 3.2 0 0 1 -1.848-2.163z" fill="#ffee9a"/><path d="m6 13 .334 1.337a3.2 3.2 0 0 0 2.329 2.329l1.337.334-1.337.334a3.2 3.2 0 0 0 -2.329 2.329l-.334 1.337-.334-1.337a3.2 3.2 0 0 0 -2.329-2.329l-1.337-.334 1.337-.334a3.2 3.2 0 0 0 2.329-2.329z" fill="#fee567"/><path d="m6.334 15.337-.334-1.337-.334 1.337a3.2 3.2 0 0 1 -1.848 2.163 3.2 3.2 0 0 1 1.848 2.163l.334 1.337.334-1.337a3.2 3.2 0 0 1 1.848-2.163 3.2 3.2 0 0 1 -1.848-2.163z" fill="#ffee9a"/></g></svg>