<?xml version="1.0" encoding="UTF-8" standalone="no"?>
<!-- Created with Inkscape (http://www.inkscape.org/) -->

<svg
   xmlns:dc="http://purl.org/dc/elements/1.1/"
   xmlns:cc="http://creativecommons.org/ns#"
   xmlns:rdf="http://www.w3.org/1999/02/22-rdf-syntax-ns#"
   xmlns:svg="http://www.w3.org/2000/svg"
   xmlns="http://www.w3.org/2000/svg"
   xmlns:sodipodi="http://sodipodi.sourceforge.net/DTD/sodipodi-0.dtd"
   xmlns:inkscape="http://www.inkscape.org/namespaces/inkscape"
   width="272.03189"
   height="444.85236"
   id="svg2"
   version="1.1"
   inkscape:version="0.47 r22583"
   sodipodi:docname="Tocantins.svg">
  <defs
     id="defs4">
    <inkscape:perspective
       sodipodi:type="inkscape:persp3d"
       inkscape:vp_x="0 : 526.18109 : 1"
       inkscape:vp_y="0 : 1000 : 0"
       inkscape:vp_z="744.09448 : 526.18109 : 1"
       inkscape:persp3d-origin="372.04724 : 350.78739 : 1"
       id="perspective10" />
    <inkscape:perspective
       id="perspective2824"
       inkscape:persp3d-origin="0.5 : 0.33333333 : 1"
       inkscape:vp_z="1 : 0.5 : 1"
       inkscape:vp_y="0 : 1000 : 0"
       inkscape:vp_x="0 : 0.5 : 1"
       sodipodi:type="inkscape:persp3d" />
  </defs>
  <sodipodi:namedview
     id="base"
     pagecolor="#ffffff"
     bordercolor="#666666"
     borderopacity="1.0"
     inkscape:pageopacity="0.0"
     inkscape:pageshadow="2"
     inkscape:zoom="0.70000001"
     inkscape:cx="-188.3841"
     inkscape:cy="112.87317"
     inkscape:document-units="px"
     inkscape:current-layer="layer1"
     showgrid="false"
     inkscape:window-width="1600"
     inkscape:window-height="838"
     inkscape:window-x="-8"
     inkscape:window-y="-8"
     inkscape:window-maximized="1" />
  <metadata
     id="metadata7">
    <rdf:RDF>
      <cc:Work
         rdf:about="">
        <dc:format>image/svg+xml</dc:format>
        <dc:type
           rdf:resource="http://purl.org/dc/dcmitype/StillImage" />
        <dc:title />
      </cc:Work>
    </rdf:RDF>
  </metadata>
  <g
     inkscape:label="Camada 1"
     inkscape:groupmode="layer"
     id="layer1"
     transform="translate(48.010685,-451.73275)">
    <path
       style="fill:none;stroke:#7d68e9;stroke-width:15px;stroke-linecap:butt;stroke-linejoin:miter;stroke-opacity:1"
       d="m -39.774757,769.01439 c 0.436189,-0.98214 0.339278,-3.18474 3e-6,-4.16688 -0.339275,-0.98214 -0.819498,-0.57379 -1.01015,-1.01015 -0.438461,-1.00353 -0.387272,-2.76053 0.454087,-3.46156 0,0 0.419375,-0.33634 0.619193,-0.51592 0.34869,-0.31337 1.394225,-0.70974 1.01016,-0.97858 0,0 -0.893504,-0.52659 -1.2627,-0.88388 -0.340264,-0.32929 -0.866245,-0.66313 -0.85231,-1.13643 0,0 -0.116277,-0.74734 0.0316,-1.07328 0.166117,-0.36614 0.585802,-0.55093 0.88388,-0.82075 0.353725,-0.32019 0.888236,-0.50725 1.07329,-0.94702 0.159375,-0.37875 -0.409373,-1.00989 -0.0631,-1.23112 0,0 0.914607,-0.33507 1.13642,-0.72605 0.348036,-0.61347 0.318644,-1.45761 0.0631,-2.11501 -0.191419,-0.49243 -1.018005,-0.61528 -1.10486,-1.13642 0,0 -0.0069,-0.79853 -0.1894,-1.13642 -0.17695,-0.32758 -1.080062,-0.49044 -0.82075,-0.75761 0,0 0.69182,-0.71813 1.04172,-1.07329 0.313309,-0.31802 0.666774,-0.59951 0.94702,-0.94702 0,0 0.496717,-0.67847 0.78918,-0.97859 0.385529,-0.39562 1.030829,-0.5719 1.26269,-1.07328 0.119249,-0.25787 -0.09506,-0.58459 0,-0.85232 0.145157,-0.40885 0.681443,-0.59927 0.82075,-1.01015 0.236605,-0.69785 -0.370596,-1.54007 -0.0631,-2.20971 0.209161,-0.4555 0.791478,-0.61616 1.16798,-0.94702 0,0 0.85614,-0.49207 1.04172,-0.91545 0.536632,-1.22427 -1.063582,-3.08812 -0.0947,-4.00904 0,0 2.641272,-1.67008 3.1883,-3.03046 0.255442,-0.63525 -0.611008,-1.60218 -0.0947,-2.05187 0,0 0.799392,-0.45861 0.97859,-0.85232 0.265898,-0.5842 -0.453868,-1.47173 0,-1.9256 0,0 0.825785,-0.5711 1.01015,-1.01015 0.419637,-0.99933 0.418261,-2.23888 0.0316,-3.25143 -0.172717,-0.45229 -0.961292,-0.58945 -0.97859,-1.07329 0,0 -0.13517,-0.60786 -0.0316,-0.88388 0.329513,-0.87819 1.554229,-1.19055 1.9256,-2.05187 0.137735,-0.31945 -0.0866,-0.7277 0.0631,-1.04172 0.804421,-1.68742 3.382303,-2.0771 4.13532,-3.78808 0.152591,-0.34671 -0.219407,-0.82762 0,-1.13642 0,0 0.707539,-0.7309 0.85231,-1.19955 0.167735,-0.54299 -0.248521,-1.17936 -0.0316,-1.70464 0.173261,-0.41956 0.813102,-0.52432 0.97858,-0.94701 0.276613,-0.70657 -0.375939,-1.80439 0.22097,-2.27285 0,0 1.69233,-1.00308 2.14658,-1.95717 0.271436,-0.57011 -0.413226,-1.39097 -0.0316,-1.89403 0,0 0.569568,-0.55338 0.69448,-0.91546 0.223078,-0.64664 -0.467933,-1.58456 0.0316,-2.05187 0,0 1.59111,-1.01599 1.95717,-1.8309 0.16821,-0.37446 -0.30518,-0.99639 0.0316,-1.23112 0,0 0.845873,-0.35083 1.04172,-0.72605 0.311608,-0.59701 -0.393829,-1.47404 0,-2.02031 0,0 0.78436,-0.83451 0.97859,-1.35739 0.08459,-0.22772 -0.09581,-0.5423 0.0631,-0.72604 l 1.01016,-1.16799 c 0.227149,-0.26264 -0.09192,-0.70687 0,-1.04172 0.103659,-0.37763 0.542381,-0.62279 0.59977,-1.01016 0,0 0.183972,-0.57096 0.12627,-0.85231 -0.09681,-0.47203 -0.63375,-0.76547 -0.75761,-1.23113 -0.170485,-0.64096 -0.178532,-1.43688 0.189369,-1.98873 0.171762,-0.25764 0.586048,-0.55087 0.757621,-0.94702 0.251471,-0.58063 -0.257602,-1.39104 0.12627,-1.89404 0,0 0.746726,-0.72571 0.91545,-1.19955 0.109477,-0.30746 -0.203334,-0.75205 0.0316,-0.97859 0,0 0.4928,-0.48005 0.66292,-0.85232 0.4073238,-0.89134 -0.312761,-2.24139 0.3788004,-2.93575 l 7.79712,-7.82868 c 0,0 -0.056541,-1.01495 0.15783,-1.4521 0.3604168,-0.73497 1.72039479,-0.88741 1.76777,-1.70463 0,0 -0.22876833,-1.54343 0.12627,-2.17814 0.20662733,-0.3694 1.0538207,-0.30296 1.04172,-0.72605 0,0 -0.22290017,-0.78997 -0.0316,-1.10485 0.8866673,-1.45944 2.5130043,-2.36842 4.04061,-3.88278 0,0 -0.3181739,-0.93103 -0.15783,-1.35739 0.6617918,-1.75972 4.0677531,-3.68967 4.8613581,-3.72494 0,0 0.9736395,0.0948 1.4205265,-0.0631 0.468289,-0.1655 0.729087,-0.72467 1.199555,-0.88387 2.037179,-0.69346 2.31799,-1.62919 3.88277,-3.12519 0,0 2.368469,-1.5213 2.87262,-2.74636 0.14822,-0.36017 -0.298263,-0.88412 -0.0316,-1.16799 1.973648,-1.04989 1.510778,-2.41946 1.92557,-4.10374 0.414792,-1.68428 3.070562,-2.26973 3.78807,-3.94591 0.377177,-0.88113 -0.511698,-2.15732 0.12627,-2.87262 0,0 0.855916,-0.68052 1.04172,-1.16799 0.2436,-0.63911 -0.498733,-1.58383 0,-2.05187 0,0 1.195738,-1.54242 2.05187,-1.9256 0.327817,-0.14672 0.811144,0.1508 1.07329,-0.0947 0,0 1.68421,-1.00681 1.98874,-1.86246 0.13173,-0.37013 -0.303025,-0.80293 -0.15784,-1.16799 0.129963,-0.32678 0.663078,-0.34857 0.82075,-0.66292 0.490998,-0.9789 -0.360068,-2.30176 0.12627,-3.28299 0.20582,-0.41526 0.841593,-0.48249 1.07329,-0.88389 0.191986,-0.3326 -0.06211,-0.84621 0.1894,-1.13642 0,0 0.680526,-0.55353 0.82075,-0.94702 0.120145,-0.33715 -0.256131,-0.79455 -0.0316,-1.07328 0,0 0.749614,-0.67914 0.91545,-1.13642 0.405439,-1.11798 -0.789568,-2.73813 0.0631,-3.56711 0,0 0.945183,-0.61235 1.13642,-1.10485 0.129723,-0.33408 -0.174095,-0.73982 -0.0631,-1.07329 0.761123,-2.28669 0.778299,-3.52743 0.06313,-4.92449 -0.240335,-0.46949 1.346085,-0.67851 1.13642,-1.16799 -0.630342,-1.4716 -1.915464,-2.04153 0.88389,-4.89293 0,0 -1.521855,-0.62036 -1.19956,-0.94701 1.996242,-1.96607 -0.159028,-3.10646 -1.86247,-3.97751 -1.734744,-0.88705 -1.790242,-2.9289 -3.882777,-3.12516 -1.32388,-0.12416 -2.957444,-2.0622 -3.093593,-2.90419 -0.161087,-0.99621 -0.313835,-1.18655 -0.94701,-2.0203 -0.224575,-0.29572 -0.01192,-0.77648 -0.18941,-1.10486 -0.726144,-1.34343 -1.291722,-3.92625 -0.85231,-5.87151 0.439412,-1.94526 3.289422,-2.28037 3.97747,-4.04061 0.118815,-0.30397 -0.264115,-0.74956 -0.0316,-0.97858 0,0 3.608705,-2.26159 4.19845,-4.13532 0.08675,-0.27561 -0.371937,-0.65829 -0.15784,-0.85231 0,0 0.825999,-0.50002 1.01016,-0.91545 0.157783,-0.35592 -0.288488,-0.90655 0,-1.16799 0,0 0.829627,-0.49843 1.01015,-0.91545 1.590379,-3.67388 0.322362,-8.35665 0.15784,-12.09027 -0.02489,-0.56493 -1.19956,-0.63407 -1.19956,-1.19955 0,0 -0.475736,-2.55812 0,-3.69337 0.65931,-1.57332 1.982629,-1.35305 3.15673,-2.02034 1.233079,-0.7008 1.505368,-1.5975 2.96732,-1.9572 1.794832,-0.44161 2.063337,-4.04061 3.94591,-4.04061 0,0 1.928481,0.31757 2.80949,0 0.449939,-0.16218 0.626779,-0.9295 1.10485,-0.91545 0,0 1.487965,0.34356 2.14657,0.0631 0.41809,-0.17804 0.461244,-0.99623 0.91545,-1.01016 0,0 3.576015,0.53596 5.14547,-0.15783 1.245521,-0.55059 1.482178,-2.84665 2.84105,-2.93576 0,0 1.328274,0.11239 1.92561,-0.12627 0.457901,-0.18295 0.643662,-0.96529 1.13642,-0.94702 0,0 0.588572,0.13775 0.85231,0.0316 0.4073,-0.16393 0.888343,-0.50881 0.91545,-0.94702 l 0.18941,-3.06202 c -0.414817,-0.8764 -2.088028,-0.70216 -0.536644,-2.90419 0,0 0.406093,-0.84185 0.505074,-1.29426 0.0766,-0.3501 -0.200729,-0.83074 0.0631,-1.07329 0,0 1.589678,-0.99292 1.95717,-1.79933 0.157146,-0.34483 -0.233978,-0.8661 0.0316,-1.13642 0,0 0.992395,-1.47414 1.76777,-1.79934 0.300811,-0.12616 0.737545,0.21978 0.97859,0 0,0 1.813905,-2.57125 3.21986,-2.93575 1.234401,-0.32002 3.133146,-0.43558 3.914335,0.18937 0,0 0.659806,0.72777 1.104855,0.88389 0.278021,0.0975 0.678429,0.21117 0.88389,0 0,0 1.173886,-0.62608 1.13642,-1.16799 -0.04137,-0.59844 -0.820658,-1.10486 -1.42053,-1.10486 0,0 -0.459556,0.14251 -0.59978,0 -0.45763,-0.46508 0.514392,-1.51827 0.0316,-1.95717 0,0 -0.842691,-0.52203 -1.04172,-0.94702 -0.415414,-0.88703 0.247765,-2.03049 -0.12627,-2.93575 -0.190557,-0.4612 -1.040321,-0.60676 -1.01015,-1.10486 0,0 -0.07842,-0.72393 0.0631,-1.04172 0.378361,-0.84965 1.028627,-2.0423 1.95717,-1.98873 0,0 2.284843,0.64243 3.283,0.1894 0.436992,-0.19834 0.447654,-0.9364 0.88388,-1.13642 0.383074,-0.17564 0.998139,0.39114 1.26269,0.0631 0,0 0.652533,-0.58244 0.78919,-0.97858 0.240227,-0.69637 0.294378,-1.54912 -0.0316,-2.20971 -0.225437,-0.45685 -0.828252,-0.59822 -1.19956,-0.94702 0,0 -0.849134,-0.54282 -1.04172,-0.97858 -0.272259,-0.61604 0.01787,-1.74857 0.536611,-2.17815 l 2.02031,-1.67306 c 0.462228,-0.38278 1.030171,0.30736 1.578359,0.0631 0.463946,-0.20673 0.97859,-0.66007 0.97859,-1.16799 0,0 0.276266,-1.48653 0,-2.14657 -0.387838,-0.9266 -2.14658,-1.11052 -2.14658,-2.11501 0,0 0.127629,-0.61833 0,-0.88388 -0.175119,-0.36436 -0.956482,-0.35347 -0.94701,-0.75761 0,0 -0.454693,-2.81048 0.0947,-4.04061 0.388564,-0.87002 1.531075,-1.96583 2.483884,-1.95718 0,0 2.809913,0.2095 3.482326,0.0316 0.326944,-0.0865 0.266493,-0.70409 0.410373,-1.01015 0.614089,-1.30631 2.453072,-2.42202 2.746357,-3.06203 0,0 0.06568,-0.77182 -0.0947,-1.10485 -1.400709,-2.00319 -2.443962,-2.904 -4.10375,-2.87262 -0.44828,-0.18166 -0.558032,-1.01015 -1.04172,-1.01015 0,0 -2.02764,0.36464 -2.93575,0 -1.270757,-0.51026 -2.82851,-1.76052 -2.714792,-3.12517 0,0 0.02945,-0.41085 -0.126271,-0.75761 -0.193977,-0.43195 -0.945304,-0.49798 -1.167997,-0.94702 -0.149674,-0.30181 0.192213,-0.75836 -0.0316,-1.01015 0,0 -0.836135,-0.66041 -1.01016,-1.13642 -0.140952,-0.38555 0.296765,-0.91774 0.0316,-1.23112 0,0 -0.34063,-0.76394 -0.69448,-0.82075 -0.163762,-0.0263 -0.656444,0.95368 -1.16799,1.13642 -0.696184,0.2487 -1.523493,-0.4644 -2.20971,-0.1894 -0.442876,0.17748 -0.471105,1.10725 -0.94701,1.07328 0,0 -0.610293,-0.17443 -0.88389,-0.0631 -0.46945,0.19102 -0.541553,0.94332 -1.01015,1.13642 -0.311926,0.12854 -0.767835,0.17164 -1.01015,-0.0631 0,0 -0.576321,-0.80092 -1.01016,-0.97859 -1.236695,-0.50648 -3.277963,0.52743 -4.230011,-0.41041 0,0 -0.972589,-1.34371 -1.894039,-1.70463 -1.56839,-0.61432 -3.459615,0.71055 -5.05076,0.15784 -0.493798,-0.17153 -1.201587,-0.46855 -1.19955,-1.01015 0.002,-0.5416 0.73379,-1.07329 1.29425,-1.07329 0,0 0.7444,0.1408 1.07329,0 0.868922,-0.372 1.012069,-2.06578 1.95717,-2.05187 0,0 1.485479,-0.24233 2.14658,0.0316 0.948678,0.39308 1.671505,3.02113 2.2097,2.14657 0,0 0.660558,-0.75914 0.75762,-1.23112 0.07284,-0.3542 -0.446192,-0.85508 -0.15784,-1.07329 0,0 0.917053,-0.46506 1.16799,-0.88388 0.208054,-0.34725 -0.07954,-0.897 0.1894,-1.19956 0,0 0.622532,-0.49701 0.75762,-0.85232 0.115923,-0.3049 -0.241531,-0.75934 0,-0.97858 0,0 1.187444,-1.53692 2.05187,-1.86247 0.590917,-0.22255 1.428576,0.45828 1.89404,0.0316 0,0 0.67888,-0.80778 1.13642,-1.04172 0.927892,-0.47443 2.044975,-0.85869 3.06202,-0.63135 0,0 1.852961,0.2117 2.68322,0.59978 0.516693,0.24151 0.787146,1.03074 1.35739,1.04172 0,0 1.129459,-0.16157 1.6415,0.0316 0.50297,0.18975 0.694671,1.00713 1.23113,1.04172 0,0 0.683419,-0.0773 0.97858,0.0631 0.34963,0.16636 0.402656,0.87504 0.78918,0.85232 0,0 0.741069,-0.19751 1.07329,-0.0631 0.49015,0.19831 0.544598,1.16043 1.07329,1.16799 0,0 1.533545,-0.26071 2.20971,0.0316 0.416659,0.18013 0.493119,0.98429 0.94701,0.97858 0,0 3.499525,0.63703 5.0192,-0.0631 0.826218,-0.38065 0.889674,-2.04453 1.79933,-2.05187 0,0 2.692174,-0.48861 3.914344,-0.0316 0.56558,0.21149 0.7551,1.24256 1.3574,1.19956 0,0 0.6063,-0.16407 0.88388,-0.0631 0.85317,0.31034 1.91857,0.987 1.95717,1.89404 0,0 -0.25315,2.05291 0.12627,2.96732 0.34533,0.83226 0.92991,1.97705 1.8309,1.98874 0,0 3.3429,-0.50312 4.86136,0.0631 0.4128,0.15393 0.57345,0.79409 1.01015,0.85232 0,0 0.65947,-0.0106 0.94702,0.12627 0.45704,0.21755 0.60178,1.09762 1.10486,1.04172 0,0 0.7853,-0.27453 1.13642,-0.12627 0.4421,0.18668 0.58543,0.76062 0.88388,1.13642 0.31171,0.39251 0.44713,1.20457 0.94702,1.16799 0,0 0.9014,-0.27576 1.29426,-0.0947 0.40329,0.18587 0.54862,1.40572 0.78918,1.07328 1.26424,-1.74713 4.90179,1.38225 4.92449,2.90419 0,0 -0.54633,2.95834 0.0631,4.23002 0.2067,0.43131 1.11388,0.43726 1.10485,0.91545 0,0 0.20087,1.16603 -0.0316,1.67306 -0.22361,0.48772 -1.21156,0.53688 -1.19955,1.07329 0,0 -0.43788,2.92408 0.0947,4.23001 0.16868,0.41361 0.8773,0.53354 0.91545,0.97859 0,0 -0.0846,0.78161 0.0947,1.10485 0.25519,0.46009 1.27914,0.42116 1.26269,0.94702 0,0 -0.14935,0.69452 -0.0316,1.01015 0.13014,0.34884 0.75955,0.44843 0.75761,0.82075 0,0 0.92082,4.27917 -0.0316,6.06092 -0.22151,0.41438 -1.20812,0.32103 -1.16799,0.78918 0,0 -0.14532,1.55056 0.18941,2.20971 0.19586,0.38569 0.96981,0.41983 0.97858,0.85231 0,0 -0.36723,3.18439 0.0947,4.67196 0.14194,0.4571 0.74223,0.72324 0.78919,1.19956 0,0 -0.10541,1.56522 0.22097,2.24127 0.20382,0.42219 1.03766,0.51059 1.01015,0.97859 0,0 -0.20154,0.74272 -0.0631,1.07328 0.17284,0.41269 0.98088,0.43743 1.01016,0.88389 0,0 0.32122,1.31261 0.12627,1.9256 -0.1519,0.47765 -0.87614,0.6718 -0.94702,1.16799 0,0 -0.005,0.6123 -0.12627,0.88388 -0.1802,0.40203 -0.84352,0.56968 -0.85232,1.01016 0,0 0.39707,2.2102 -0.0631,3.15672 -0.19617,0.4035 -1.0331,0.27552 -1.04172,0.85232 -0.009,0.5768 -0.0316,2.11501 -0.0316,2.11501 -0.006,0.41462 0.80917,0.36333 1.01015,0.72604 0.15843,0.28591 0.2779,0.7322 0.0631,0.97859 0,0 -0.89052,0.71829 -1.07329,1.23112 -0.10957,0.30743 0.1588,0.67803 0.0316,0.97859 -0.1829,0.43217 -0.83467,0.52588 -1.04172,0.94702 -0.17234,0.35053 0.17624,0.88662 -0.0947,1.16798 0,0 -0.66712,0.48906 -0.82075,0.85232 -0.36499,0.86302 0.53758,2.11794 -0.0947,2.80949 0,0 -0.80888,0.64823 -1.01016,1.10485 -0.70493,1.59916 0.9018,3.9938 0.15784,5.1139 0,0 -0.80473,0.45622 -0.97859,0.85232 -0.15653,0.35663 0.18337,0.8093 0.0316,1.16798 -0.20604,0.48695 -1.1402,0.54527 -1.16799,1.07329 0,0 -0.30988,1.2386 -0.0947,1.79934 0.19193,0.50015 0.92611,0.64372 1.13642,1.13642 0.38427,0.90022 0.73394,2.22298 0.0631,2.93575 l -1.01015,1.07329 c -0.63565,0.67538 0.50603,1.9183 0.15783,2.77792 -0.40817,1.0077 -2.39911,2.20971 -2.39911,2.20971 -0.23679,0.2181 0.29324,0.6423 0.1894,0.94702 -0.13953,0.40945 -0.65637,0.5637 -0.97858,0.85231 -0.40493,0.3627 -0.81672,0.71892 -1.19956,1.10486 -0.32002,0.32261 -0.91545,1.01015 -0.91545,1.01015 -0.20504,0.22625 0.13949,0.62982 0.0316,0.91545 -0.18412,0.48743 -0.70729,0.76557 -1.07329,1.13642 -0.33976,0.34426 -0.55809,1.01783 -1.04172,1.01015 -0.45387,-0.007 -0.49937,-0.90332 -0.94702,-0.97858 -2.60738,-0.43834 -3.48054,0.87813 -4.04061,2.84105 0,0 0.77724,0.92583 1.19956,1.3574 0.2604,0.26611 0.46892,0.63579 0.82075,0.75761 0.37902,0.13123 0.83524,-0.26249 1.19955,-0.0947 0.38999,0.17962 0.75762,1.04172 0.75762,1.04172 0.21079,0.28983 -0.0796,0.74454 0.0631,1.07328 0.2371,0.54618 0.79934,0.88427 1.23113,1.29426 0.2814,0.2672 0.49638,0.77821 0.88388,0.75762 0.50546,-0.0269 0.66665,-0.76495 1.04172,-1.10486 l 1.01015,-0.91545 c 2.17968,-1.97534 5.86121,1.15382 6.91327,3.97745 0.1742,0.46753 -0.62993,0.84771 -1.04172,1.16799 0,0 -0.68881,0.71083 -1.13642,0.88388 -0.3839,0.14842 -0.84987,-0.0604 -1.23112,0.0947 0,0 -1.33169,0.34838 -1.86247,0.75762 -0.33332,0.257 -1.01725,0.67888 -0.75761,1.01015 0,0 0.47704,0.93888 0.91545,1.16799 0.65387,0.3417 1.64363,-0.34687 2.20971,0.12627 0,0 1.70011,0.94793 2.115,1.76776 0.15234,0.30102 -0.1537,0.75167 0.0631,1.01016 0,0 0.44685,0.77499 0.82075,0.97858 0.22351,0.12171 0.56009,-0.0658 0.75761,0.0947 0,0 0.78206,0.4517 1.01015,0.82075 0.20401,0.33009 -0.0139,0.8543 0.25254,1.13642 0,0 2.11496,1.66893 2.68322,2.84106 0.15775,0.32539 -0.0618,0.78604 0.15783,1.07329 0,0 0.40536,0.89922 0.82075,1.07328 0.31298,0.13114 0.76283,-0.35861 1.01016,-0.12627 0,0 0.87256,0.53321 1.04172,0.97859 0.1238,0.32595 -0.35091,0.80522 -0.0947,1.04172 0,0 0.99733,0.62923 1.23113,1.13642 0.11461,0.24864 -0.15598,0.62132 0.0316,0.82075 0,0 2.36442,2.0352 2.93577,3.37769 0.16502,0.38777 -0.17377,0.77732 0.12623,1.07329 0,0 3.82566,2.62047 4.70352,4.64039 0.15105,0.34755 -0.24791,0.88053 0.0316,1.13642 0,0 1.76259,1.15924 2.24128,2.05188 0.16106,0.30034 -0.0779,0.76404 0.15783,1.01015 0,0 2.35667,1.71439 2.87262,2.99889 0.11766,0.29293 -0.10878,0.65068 0,0.94702 0.15693,0.4275 0.42852,1.04652 0.88389,1.04172 0,0 2.05979,0.31113 2.99889,-0.0316 2.68149,-0.36231 2.76428,-3.93872 5.01919,-4.22998 0.43986,-0.0568 0.40372,-1.04867 0.85232,-1.04172 0,0 2.79288,0.51737 4.07218,0.0631 0.40119,-0.14246 0.55285,-0.82075 0.97858,-0.82075 0,0 0.77667,0.16712 1.10486,0 0.38261,-0.19483 0.32846,-1.0283 0.75761,-1.04172 0,0 0.70575,0.11273 1.01015,-0.0316 0.39086,-0.18533 0.4198,-0.97203 0.85232,-0.97858 l 6.25032,-0.0947 c 0.90268,-0.0137 0.94709,1.67567 1.76776,2.05187 3.52388,-0.22526 4.52783,3.08711 4.38786,6.09248 -0.0201,0.43186 0.8672,0.54627 0.85231,0.97859 -0.0133,0.38668 -0.53988,0.55466 -0.82075,0.82075 0,0 -0.98607,0.62868 -1.19955,1.13642 -0.24881,0.59178 0.44257,1.43244 0.0316,1.9256 0,0 -0.9777,0.64428 -0.94701,1.13642 0.0547,0.87678 2.49808,1.13301 1.9256,1.79934 0,0 -1.60048,1.31152 -1.9256,2.24127 -0.18769,0.53673 0.43065,1.27081 0.0631,1.70464 0,0 -1.00154,1.90941 -1.9256,2.27284 -0.41418,0.1629 -0.91306,-0.32428 -1.32583,-0.15784 -0.4161,0.16778 -0.40366,1.04172 -0.85231,1.04172 0,0 -0.74826,0.14949 -1.07329,0 -0.35255,-0.16215 -0.37223,-0.92922 -0.75762,-0.88388 0,0 -0.74012,-0.0107 -1.07328,0.12627 -0.39518,0.16251 -0.58306,0.77622 -1.01016,0.78918 0,0 -0.72775,-0.11709 -1.04172,0.0316 -0.39095,0.18514 -0.55035,0.66885 -0.85231,0.97858 -0.35872,0.36795 -0.65654,0.8579 -1.13642,1.04172 -0.95319,0.36513 -2.12054,-0.42592 -3.06203,-0.0316 -0.37752,0.15812 -0.81999,0.47587 -0.85231,0.88389 0,0 0.16262,2.20636 -0.25254,3.18829 -0.18002,0.42578 -0.59462,0.70891 -0.91545,1.04172 -0.37195,0.38584 -0.75387,0.76469 -1.16799,1.10486 0,0 -0.74812,0.36975 -0.88389,0.72604 -0.24271,0.63693 0.23648,1.37546 0.0157,2.02031 -0.49192,1.43663 -2.99873,1.60673 -3.01456,3.12516 0,0 -0.46009,2.11563 -0.0316,3.03046 0.21888,0.46731 1.22984,0.46344 1.19955,0.97858 0,0 0.0933,0.75081 -0.0631,1.07329 -0.38694,0.79809 -2.06239,0.88388 -1.98874,1.76776 0,0 -0.0714,0.7945 0.0947,1.13643 0.18215,0.37504 0.92176,0.43543 0.91545,0.85231 0,0 0.42544,2.8665 -0.0631,4.16688 -0.16016,0.4263 -0.42916,1.06629 -0.88389,1.04172 0,0 -0.80796,-0.21277 -1.16798,-0.0631 -0.36472,0.15162 -0.62864,0.65154 -0.78919,1.06245 -0.21698,0.55533 -0.22429,1.24463 -0.48954,1.7786 -0.64909,1.30668 -3.06911,1.55114 -2.88815,2.99889 0,0 0.31132,0.86726 0.15783,1.26269 -0.30521,0.78628 -1.9256,0.79806 -1.9256,1.6415 l 0,1.29426 c 0,0.43385 0.5853,0.7796 1.01015,0.82075 1.04811,0.10151 1.18515,0.32295 1.92561,0.91545 0.53955,0.43174 2.115,0.0631 2.115,0.0631 0.41886,0.0125 0.41113,-0.79779 0.78918,-0.97858 1.15407,-0.29974 1.85863,0.18633 2.33598,0.97858 0.2232,0.37044 -1.07329,0.42042 -1.07329,0.88389 -0.13543,1.28375 0.10717,1.98051 1.19956,2.33597 0.44598,0.14512 0.33893,-1.63084 0.69448,-1.29425 0,0 1.90798,1.25651 2.36755,2.24127 0.14712,0.31524 -0.17378,0.78696 0.0631,1.04172 1.01306,2.05744 1.70253,1.15651 0.66291,2.90419 -0.2325,0.39086 1.28425,0.71537 0.94702,1.04172 0,0 -0.81143,0.52499 -0.97858,0.94702 -0.42417,1.48782 -0.0447,1.6716 1.19955,2.05184 0.82196,0.25118 0.71633,1.17762 0.85228,1.9256 0.15969,0.87859 1.16788,1.36439 1.86247,1.92561 0.58821,0.47527 1.16956,1.21599 1.9256,1.19955 0,0 3.01292,-0.64694 4.35628,-0.0947 0.41984,0.17259 1.30787,0.7032 0.94702,0.97859 0,0 -1.15863,0.41413 -1.19956,0.91545 -0.0412,0.50449 0.65681,0.76097 1.04172,1.10485 0.38491,0.34388 0.73658,0.94702 1.2627,0.94702 0,0 1.42512,-0.27384 2.05187,0 0.3548,0.15502 0.7746,0.4654 0.78918,0.85232 0.0197,0.52385 -1.3552,0.86646 -0.97859,1.23112 0,0 1.98673,1.00286 1.98874,1.9256 0.004,1.89745 -4.19054,2.08372 -4.07218,3.97748 0,0 0.37125,1.39159 0.12627,2.0203 -0.40259,1.03319 -2.01133,1.39939 -2.39911,2.48298 -0.17552,0.49045 -0.0995,1.08819 0.12627,1.55763 0.21294,0.44275 0.58314,0.97659 1.07329,1.01016 0,0 1.61457,-0.1841 2.30441,0.15783 0.40088,0.1987 0.89667,0.56291 0.88388,1.01015 0,0 -0.21951,0.78795 -0.0316,1.10486 0.29522,0.49789 0.97029,0.841 1.5468,0.78918 0.55337,-0.0497 0.77242,-1.05947 1.32583,-1.01015 0.51185,0.0456 0.8595,0.65594 1.04172,1.13642 0.22018,0.58056 -0.28806,1.297 -0.0316,1.86247 0.37006,0.81596 2.07486,0.84054 2.05187,1.7362 0,0 0.16792,0.87236 -0.0316,1.23112 -0.21419,0.38514 -1.38391,0.38498 -1.10485,0.72605 0,0 1.15555,0.79106 1.13642,1.38896 -0.0133,0.41672 -0.69115,0.53093 -0.85232,0.91545 -0.27686,0.66054 -0.35413,1.47899 -0.0947,2.14657 0.15632,0.40224 0.90152,0.48413 0.91545,0.91545 0,0 -0.11905,0.68907 0.0316,0.97859 0.19428,0.37337 0.99739,0.33691 1.01015,0.75761 0,0 -0.0817,0.71331 0.0316,1.04172 0.14481,0.41979 0.39865,0.86191 0.78918,1.07329 0.33365,0.1806 0.78612,-0.0826 1.13642,0.0631 0.39213,0.16309 0.9228,0.42831 0.94702,0.85231 0,0 -0.10836,0.77824 0.0631,1.10486 0.22305,0.42491 1.06102,0.40994 1.13642,0.88388 0,0 -0.0218,0.98792 0.22097,1.38896 0.2921,0.48247 0.79538,1.05757 1.35739,1.01015 0.65261,-0.0551 0.70371,-1.46103 1.35739,-1.42053 0.45791,0.0284 0.41772,0.88565 0.82075,1.10486 0.57429,0.31236 1.33307,0.32091 1.95717,0.12627 0.55066,-0.17173 0.82928,-0.84133 1.3574,-1.07329 0.24392,-0.10713 0.63134,-0.1894 0.78918,-0.12627 0.15783,0.0631 0.78231,0.83052 1.29426,1.04172 0.18583,0.0767 0.41037,0.0631 0.59977,0.0631 0.18941,0 0.57952,0.90775 1.04172,0.91545 0,0 2.56776,0.38814 3.78808,0.0631 0.55627,-0.14817 0.908,-0.88388 1.48366,-0.88388 0,0 1.35202,-0.24374 1.95717,0 0.35205,0.1418 0.79779,0.41034 0.82075,0.78918 0,0 -0.11667,1.43148 0.12627,2.08344 0.15726,0.42203 0.50706,1.39647 0.82074,1.07329 0,0 0.54357,-1.05298 1.04172,-1.07329 0.55881,-0.0228 0.73915,0.90814 1.26269,1.10485 0.197,0.074 0.44195,0 0.63135,0 0.1894,0 0.5601,-1.12106 1.07329,-1.10485 0,0 2.09264,-0.32835 2.99889,0.0947 0.3579,0.16707 0.39432,0.87448 0.78918,0.88388 0,0 2.71668,0.50606 3.97747,0.0947 0.54222,-0.17691 0.95982,-0.63278 1.3574,-1.04172 0,0 0.92421,-0.63995 1.10485,-1.13643 0.24531,-0.67421 -0.42812,-1.48198 -0.15783,-2.14657 0.18534,-0.45572 0.61419,-1.01447 1.10485,-0.97858 0.52135,0.0381 1.01807,0.67687 1.01015,1.19955 0,0 0.52282,2.90738 -0.0631,4.16688 -0.22338,0.48017 -1.29716,0.52121 -1.19956,1.04172 0,0 0.3263,0.6961 0.18941,1.01015 -0.18897,0.43353 -1.19956,0.28469 -1.19956,0.75762 0,0 0.21945,1.00094 0,1.42052 -0.21375,0.40867 -0.67549,0.80455 -1.13642,0.78919 0,0 -1.92879,-0.35084 -2.84106,-0.0947 -0.38776,0.10887 -1.02609,0.26049 -1.01015,0.66292 0,0 0.50475,2.19431 0.12627,3.18829 -0.14565,0.3825 -0.47913,0.71579 -0.85232,0.88388 -0.67221,0.30277 -1.54027,-0.21414 -2.20971,0.0947 -1.3048,0.60195 -1.61006,2.6023 -2.93575,3.15672 -0.3302,0.1381 -0.739,-0.15949 -1.07329,-0.0316 -0.82723,0.31646 -1.9256,1.8309 -1.9256,1.8309 -0.26106,0.24822 -0.74943,-0.0315 -1.07329,0.12627 -1.6924,0.82427 -2.26395,3.22963 -3.97747,4.00904 -0.59508,0.27068 -1.32896,-0.0547 -1.95717,0.12627 -0.55198,0.15898 -1.51523,0.82075 -1.51523,0.82075 -0.69392,0.37587 -1.63205,-0.2861 -2.36755,0 -0.47892,0.18629 -1.13642,1.04172 -1.13642,1.04172 -0.72966,0.66886 1.75749,1.14171 2.14657,2.05187 0.14476,0.33864 0.27664,0.86174 0,1.10485 0,0 -0.61429,0.73939 -1.04172,0.91545 -0.32166,0.1325 -0.72344,-0.0773 -1.04172,0.0631 -0.45615,0.20124 -0.86337,0.5895 -1.07328,1.04172 -0.12878,0.27744 -0.0631,0.91545 -0.0631,0.91545 -0.0349,0.50672 1.14955,0.47101 1.16799,0.97859 0.0176,0.48337 -1.04172,1.01015 -1.04172,1.01015 -0.69156,0.6706 -1.5765,1.13652 -2.20971,1.86247 -0.40105,0.45978 -0.83326,0.95423 -0.97858,1.54679 -0.0604,0.24612 -0.0535,0.53261 0.0631,0.75762 0.19584,0.37802 1.26908,0.50951 0.97859,0.82075 0,0 -0.65606,0.583 -0.88389,0.94701 -0.83333,1.33147 -1.52072,1.74854 -2.96732,2.05191 -1.38379,0.29019 -1.99206,2.0941 -3.15673,2.93575 -0.79588,0.57514 0.18572,0.82597 -0.0316,1.13642 0,0 -0.54707,0.57952 -0.66292,0.94702 -0.12338,0.39139 0.32235,0.97716 0,1.23113 0,0 -0.84015,0.42731 -1.04172,0.82074 -0.44183,0.86238 -0.12626,3.08276 -0.12626,3.08276 0,0 -0.77418,0.54973 -0.97859,0.95785 -0.14262,0.28475 0.0854,0.70998 -0.12627,0.94702 -1.21555,1.36127 -2.60037,1.80856 -3.97747,2.77795 -0.28234,0.19875 -0.24327,-0.30326 -1.04172,0.0316 -0.79845,0.33486 -2.51197,1.57684 -2.99889,2.87262 -0.25267,0.6724 -0.0866,1.48342 0.1894,2.14657 0.1693,0.40674 0.81937,0.57083 0.85232,1.01016 0,0 -0.0941,0.8852 0.0947,1.26269 0.5938,1.18719 3.08527,1.89558 2.99889,3.22017 -0.6525,1.17706 0.44109,1.03776 0.97858,1.70432 0,0 -0.0497,0.59072 0.0631,0.85232 0.32737,0.75915 0.8464,1.82056 1.67306,1.8309 0,0 1.76365,-0.32686 2.52538,0.0316 0.82409,0.38781 1.09559,2.69801 1.76777,2.08344 0,0 0.63197,-0.85081 1.10486,-1.01016 0.22027,-0.0742 0.53011,-0.10126 0.69447,0.0631 0,0 0.66842,1.00552 1.19956,1.19955 0.93241,0.34062 2.27627,-0.96517 2.96732,-0.25253 0,0 0.56763,0.84647 1.01016,1.04172 0.63567,0.28047 1.44948,-0.22122 2.08344,0.0631 0.74028,0.33201 0.8618,1.75817 1.67306,1.76777 0,0 3.73656,-0.71676 5.33487,0.0631 0.42387,0.20682 0.87971,0.63324 0.88388,1.10486 0.004,0.46511 -0.59977,1.10485 -0.85231,1.10485 0,0 -1.4521,0.0947 -1.4521,0.0947 -0.42483,0.0277 -0.85231,0.82075 -0.97858,0.82075 -0.12627,0 -1.75407,0.34993 -2.55695,0.0631 -0.47076,-0.16818 -0.67278,-0.79169 -1.13642,-0.97859 -0.35188,-0.14185 -0.90712,0.23916 -1.13642,-0.0631 0,0 -0.34896,-0.75016 -0.69448,-0.91545 -0.64575,-0.30892 -1.60044,-0.39967 -2.14658,0.0631 l -1.10485,0.93618 c -0.2939,0.24903 0.74541,0.35966 0.91545,0.70532 0.32513,0.66093 0.50776,1.67613 0,2.20971 0,0 -1.49171,1.13646 -1.86247,1.95717 -0.14786,0.3273 -0.11234,0.71456 -0.0947,1.07328 0,0 0.31627,1.32237 0.0947,1.92561 -0.15913,0.43325 -0.78327,0.57862 -0.94702,1.01015 -0.13444,0.3543 0.19298,0.79354 0.0316,1.13642 -0.18196,0.38661 -0.81816,0.40745 -1.01015,0.78918 -0.1939,0.38553 -0.23429,0.91327 -0.0316,1.29426 0.21113,0.39685 0.69415,0.64564 1.13642,0.72605 0,0 0.73492,0.0149 1.04172,0.1894 0.37603,0.21383 0.51683,1.25166 0.85232,0.97859 0,0 0.79523,-0.94886 1.35739,-1.10486 0.14339,-0.0398 0.44194,0.0631 0.44194,0.0631 0.47164,0.0673 0.87172,0.97858 1.04172,0.97858 0,0 1.36867,0.23445 1.98874,0 0.44628,-0.16874 0.62701,-0.77828 1.07329,-0.94702 0.31496,-0.11909 0.69655,-0.12261 1.01015,0 0.52014,0.20337 1.24447,0.57811 1.23112,1.13643 -0.0223,0.93339 -1.28108,1.44915 -2.14657,1.79933 -0.68454,0.27697 -1.54377,-0.16127 -2.20971,0.15784 -0.36258,0.17375 -0.82075,0.88388 -0.82075,0.88388 -0.94523,1.01794 -2.86583,-0.42365 -4.16688,0.0631 -0.82526,0.30875 -2.09152,0.8264 -2.02031,1.70464 l 0.0947,1.16799 c 0.04,0.49305 -0.75404,0.70039 -0.91545,1.16798 -0.29185,0.84545 0,2.68322 0,2.68322 0,0.52422 0.88388,1.07329 0.97858,1.23113 0.0947,0.15783 0.29996,1.22938 0,1.7362 -0.29996,0.50682 -0.78443,0.96216 -0.91545,1.54679 -0.074,0.33001 0.0947,1.01015 0.0947,1.01015 l 0.78918,1.01016 c 0.77779,0.99559 -0.43594,2.65666 0.12627,3.78807 0.41611,0.83739 2.17814,1.76777 2.17814,1.76777 0.41055,0.3332 -1.02094,0.64184 -1.07328,1.16798 -0.0402,0.40404 0.22531,1.04172 0.63134,1.04172 l 0.97859,0 c 0.57499,0 1.15308,0.46958 1.42053,0.97859 0.1713,0.32602 0,1.10485 0,1.10485 0,0.80412 1.31607,1.03244 1.64149,1.76777 0.40173,0.90776 -0.45979,2.27594 0.25254,2.96732 l 1.07329,1.04172 c 0.19012,0.18453 0.55089,0.0211 0.78918,-0.0947 0.46843,-0.22767 1.10485,-1.10485 1.10485,-1.10485 0.29028,-0.29028 0.8652,-0.15445 1.23113,0.0316 0.46151,0.23465 0.94702,1.23112 0.94702,1.23112 0.2054,0.26702 0.1713,0.7036 0.0316,1.01015 -0.214,0.46956 -1.19955,0.97859 -1.19955,0.97859 -0.74201,0.60533 -1.95974,-0.32082 -2.87262,-0.0316 -0.53174,0.16847 -1.3574,0.97858 -1.3574,0.97858 -0.31385,0.22626 -0.67269,0.4633 -0.82075,0.82075 -0.41476,1.00131 -0.38629,2.2388 0,3.25143 0.14078,0.36904 0.77443,0.48919 0.78919,0.88389 0.0149,0.39749 -0.45776,0.65335 -0.72605,0.94701 -0.36667,0.40134 -1.19956,1.10486 -1.19956,1.10486 -0.33496,0.30852 0.83391,0.47868 1.04172,0.88388 0.97011,1.89156 -0.60215,5.30992 0.0947,6.02935 1.42659,1.47282 0.0654,1.83093 -0.88388,2.99889 -0.40414,0.49724 -0.10674,1.32692 0.0631,1.95717 0.38775,1.43889 1.17681,1.60536 2.43067,1.32583 0.6444,-0.14366 1.60994,-1.16799 1.60994,-1.16799 1.04764,-0.76005 2.66897,-0.39121 3.88277,0.0316 1.18181,0.41166 1.10368,1.28368 0.50508,1.89404 -0.83059,0.84691 -3.81964,0.0316 -3.81964,0.0316 -0.44741,0.004 -0.47549,0.82742 -0.88389,1.01015 -0.91251,0.40828 -2.07633,-0.41663 -2.99889,-0.0316 -0.43264,0.18056 -0.3788,0.97859 -0.97858,1.01016 -0.59978,0.0316 -1.93353,0.5603 -2.80949,0.22097 -0.43039,-0.16672 -0.76688,-0.58521 -0.94702,-1.01016 -0.67431,-1.59071 -0.25254,-5.17703 -0.25254,-5.17703 -0.0464,-0.95137 -1.0994,-1.99618 -2.05187,-1.98874 -0.44642,0.003 -0.93463,0.50076 -0.94702,0.94702 -0.0149,0.53634 0.85928,0.70755 1.07329,1.19956 0.13907,0.31974 0.21944,0.71613 0.0947,1.04172 -0.14385,0.37545 -0.59241,0.54381 -0.88388,0.82075 -0.383,0.36392 -1.13642,1.10485 -1.13642,1.10485 -0.25663,0.2495 0.18188,0.74845 0.0316,1.07329 -0.16974,0.36689 -0.54276,0.7584 -0.94701,0.75761 l -16.22558,-0.0316 c -0.37232,-7.3e-4 -0.44194,0.82074 -0.75761,0.82074 -0.31568,0 -1.11417,-0.17712 -1.42053,0.18941 0,0 -1.43051,1.2603 -1.76777,2.115 -0.13926,0.35291 0.23638,0.90351 -0.0631,1.13643 0,0 -0.67975,0.73641 -1.13642,0.88388 -0.55109,0.17796 -1.30119,-0.44538 -1.7362,-0.0631 0,0 -0.60916,0.75239 -1.04172,0.91545 -0.24615,0.0928 -0.54362,-0.0943 -0.78918,0 -0.93891,0.36071 -1.92561,2.0203 -2.24128,2.0203 0,0 -0.75761,0.0316 -1.01015,0 -0.25254,-0.0316 -0.44631,1.27791 -0.97859,1.26269 l -1.10485,-0.0316 c -0.44637,-0.0128 -0.69448,0.75762 -1.10486,0.75762 -0.41037,0 -1.38181,-0.0919 -2.0203,0.12627 -0.33693,0.11515 -0.55121,0.47289 -0.88389,0.59978 -0.29756,0.11349 -0.66478,-0.0213 -0.94701,0.12627 -0.87129,0.45547 -1.0892,1.78137 -1.98874,2.17814 -0.2792,0.12315 -0.91545,0 -0.91545,0 -0.50944,0 -0.71981,-0.77565 -1.19956,-0.94702 -0.555,-0.19825 -1.76777,-0.0316 -1.76777,-0.0316 -0.42606,-0.008 -0.87882,0.31531 -1.07328,0.69448 -0.19711,0.38433 0.0631,1.29426 0.0631,1.29426 0.0483,0.98978 -0.99788,2.19604 -1.98874,2.20971 -0.59537,0.008 -0.67933,-1.07053 -1.23112,-1.29426 -0.97592,-0.3957 -2.20119,0.56891 -3.15673,0.12627 -0.38771,-0.1796 -0.52685,-1.34743 -0.78918,-1.01015 0,0 -0.55409,0.7878 -0.88388,1.13642 -0.29727,0.31424 -1.15716,0.85231 -1.15716,0.85231 0,0 -1.058,0.43555 -1.14725,0.0631 -0.26689,-1.11377 -3.21368,-4.18666 -3.81964,-4.13531 0,0 -1.27604,0.36828 -1.86247,0.15783 -0.59531,-0.21363 -1.4193,-0.69637 -1.35739,-1.32582 0,0 0.42319,-1.32451 0.1894,-1.92561 -0.14856,-0.38196 -0.52855,-0.68558 -0.91545,-0.82074 -0.33833,-0.11819 -0.83183,0.32793 -1.07329,0.0631 0,0 -0.49523,-1.04547 -0.97858,-1.07329 -0.43186,-0.0249 -0.96875,0.41986 -0.97859,0.85232 0,0 0.15863,0.96673 -0.0316,1.38896 -0.15905,0.35302 -0.84603,0.40204 -0.85232,0.78918 0,0 -0.50983,2.66787 -0.0631,3.88277 0.15954,0.43387 0.91545,0.57945 0.91545,1.04172 0,0 0.0749,0.55761 0,0.82075 -0.14222,0.49994 -0.83665,0.8063 -0.82075,1.32583 0,0 -0.28463,2.13418 0.0947,3.09359 0.30427,0.76957 2.20749,1.25875 1.6415,1.86247 0,0 -0.60101,0.7047 -0.94702,1.01015 -0.32188,0.28415 -1.03217,0.32836 -1.04172,0.75762 l -0.0316,1.42052 c -0.009,0.41081 -0.72605,0.78919 -0.94702,0.78919 -0.22097,0 -0.74846,0.11872 -1.07328,-0.0316 -1.29823,-0.6008 -2.26951,-1.89114 -2.87262,-3.1883 -0.12987,-0.27932 -0.12627,-0.91545 -0.12627,-0.91545 -0.053,-0.38441 -0.48754,-0.60524 -0.75762,-0.88388 -0.8924,-0.92066 -1.44717,-2.46163 -2.84105,-2.59315 -0.56151,-0.053 -0.87435,0.49362 -1.35739,0.50971 l -1.89404,0.0631 c -0.5322,0.0177 -0.75971,-0.80376 -1.26269,-0.97858 -1.02378,-0.35584 -2.19585,0.21437 -3.25143,-0.0316 -0.59128,-0.13778 -1.06157,-0.60954 -1.641504,-0.78918 -0.396608,-0.12286 -1.23112,-0.1894 -1.23112,-0.1894 -0.888462,-0.13668 -0.775117,-2.07344 -1.67307,-2.11501 -0.944192,-0.0437 -1.015231,2.13036 -1.95717,2.05187 0,0 -0.782107,-0.23237 -1.13642,-0.0947 -0.534427,0.20765 -0.648881,1.01926 -1.16799,1.26269 -0.181264,0.085 -0.3788,0.0316 -0.59978,0.0316 -0.22097,0 -0.910416,-0.66858 -1.10485,-1.16799 -0.759785,-1.95151 1.59813,-4.82402 0.0947,-6.28189 l -1.04172,-1.01015 c -0.363851,-0.35282 -0.78918,1.07331 -1.01015,1.13642 -0.22097,0.0631 -1.86247,0.25253 -1.98874,0.28411 -0.12627,0.0316 -1.57836,1.8309 -1.79933,1.89403 -0.22097,0.0631 -0.84324,-0.23988 -1.13642,0 l -1.04172,0.85232 c -0.279871,0.22899 -0.753639,-0.0112 -1.07329,0.15784 -0.315975,0.16713 -0.369239,0.76777 -0.72605,0.78918 0,0 -1.130625,-0.18339 -1.57836,0.0947 -0.360328,0.2238 -0.207178,1.10485 -0.63135,1.10485 l -1.98873,0 c -0.366478,0 -0.34724,0.78921 -0.69448,0.85232 -0.34724,0.0631 -1.28683,-0.13734 -1.3574,-0.63134 0,0 -0.04003,-0.90513 -0.1894,-1.32583 -0.102641,-0.2891 -0.387086,-0.49483 -0.47351,-0.78918 -0.192773,-0.65657 -0.275197,-1.40129 -0.0631,-2.05187 0.148748,-0.45626 0.778059,-0.66909 0.88388,-1.13643 0.506738,-2.23792 -1.642272,-2.12447 -2.99886,-1.04169 -0.157529,0.12573 0.172927,0.85897 0,1.23113 -0.371292,0.79908 -1.925605,1.54679 -2.02031,1.70463 -0.0947,0.15784 -0.06313,4.86137 -0.12627,5.0192 -0.06314,0.15784 -0.773507,1.63655 -1.16798,1.23112 0,0 -1.098316,-0.62618 -1.13643,-1.16799 -0.209661,-2.98043 -1.208825,-6.69584 1.29426,-8.83883 0.200284,-0.17147 0.265641,-0.58676 0.0947,-0.78919 l -1.19955,-1.42052 c -0.1833,-0.21707 0.09524,-0.50847 0,-0.85232 -0.09524,-0.34385 -0.329714,-0.83385 -0.66291,-1.10485 -0.333196,-0.271 -1.582127,-1.27914 -2.36755,-1.92561 -0.348922,-0.28719 -0.529931,-0.85986 -1.04172,-0.86767 -1.860352,-0.0284 -1.812669,-0.20196 -2.71475,-2.03653 0,0 -1.009036,-0.69494 -1.23113,-1.23112 -0.124829,-0.30136 0.224123,-0.74158 0,-0.97858 l -2.74635,-2.90419 c -1.048124,-1.10836 -1.774411,-2.71031 -3.18829,-3.283 -0.321989,-0.13042 -0.730782,-0.12333 -1.04172,0.0316 -0.797202,0.39723 -1.5468,1.95717 -1.67307,2.08344 -0.12627,0.12627 0.181595,1.13486 -0.1894,1.45209 0,0 -1.874012,0.95689 -2.17814,1.86247 -0.109733,0.32674 0.487736,0.79189 0.22097,1.01015 0,0 -0.623402,0.69014 -1.04172,0.85232 -0.363533,0.14094 -0.803877,0.20253 -1.16799,0.0631 -0.861605,-0.32994 -1.70463,-1.89405 -1.95717,-1.95717 -0.25254,-0.0631 -1.446686,0.25626 -2.05187,-0.0631 -0.426259,-0.22494 -0.702906,-0.70977 -0.85232,-1.16799 -0.20877,-0.64026 0.259393,-1.39883 0,-2.0203 -0.530203,-1.2703 -2.497284,-2.92707 -2.93576,-2.90419 -0.758577,0.0396 -2.238118,3.44323 -4.04061,4.10374 -0.327384,0.11997 -0.814058,-0.35879 -1.04172,-0.0947 0,0 -0.623161,0.54836 -0.78918,0.91545 -0.157595,0.34846 0.124425,0.87836 -0.15783,1.13642 0,0 -0.891044,0.55927 -1.10486,1.01015 -0.162562,0.3428 0.205173,0.86816 -0.0631,1.13643 0,0 -0.789338,0.52936 -0.94702,0.94701 -0.234618,0.62143 0.598392,1.52149 0.12627,1.98874 0,0 -2.422492,1.7447 -3.06203,3.03046 -0.14183,0.28514 0.07082,0.69687 -0.12627,0.94702 0,0 -0.846838,0.60042 -0.82075,1.04172 0.0281,0.47536 1.026041,0.53422 1.01016,1.01015 0,0 0.107603,0.6635 -0.0316,0.94702 -0.17457,0.35555 -1.097142,0.40692 -0.91545,0.75761 0.922823,1.78118 1.2795,4.68852 -0.3157,6.02935 -0.233478,0.19625 -1.51523,0 -1.6415,0 -0.12627,0 -0.629395,-0.77684 -1.07329,-0.78918 0,0 -0.789427,0.12072 -1.13642,-0.0316 -0.483768,-0.21236 -0.580605,-1.20195 -1.10485,-1.13642 0,0 -0.690489,0.24012 -1.01016,0.12627 -0.904432,-0.32212 -1.030415,-2.14149 -1.98874,-2.08344 0,0 -0.715499,0.18394 -1.04171,0.0631 -0.453569,-0.16801 -0.59344,-0.82849 -1.04172,-1.01015 -0.292565,-0.11856 -0.719925,0.21927 -0.94702,0 -0.30515,-0.29463 -0.528825,-0.82004 -0.91545,-0.88388 -1.259915,-0.20805 -1.158478,-1.24356 -3.15673,-1.07321 -0.830039,0.0708 -1.192535,-1.49421 -1.8940396,-2.0203 -0.2244688,-0.16834 -0.6478514,0.0815 -0.88388,-0.0631 -0.4163614,-0.25516 -0.6553099,-0.89095 -1.07329,-1.13642 -0.2449332,-0.14384 -0.6997446,0.1544 -0.91545,-0.0316 -0.691455,-0.59622 -0.9611141,-0.79066 -1.9256,-0.88391 -0.2957772,-0.0286 -0.657497,-0.71634 -1.04172,-1.01015 -0.3577633,-0.27358 -0.6784461,-0.62618 -1.07329,-0.82075 -0.3312027,-0.16321 -0.7461044,-0.13682 -1.10485,-0.25254 -0.6198377,-0.19995 -1.29063137,-0.3282 -1.8309,-0.69448 0,0 -1.2004751,-0.91007 -1.86247,-1.26269 -0.6708613,-0.35734 -1.5173333,-0.38271 -2.11501,-0.85232 0,0 -0.7984305,-0.84743 -1.32582,-1.04172 -0.4940834,-0.18202 -1.1189586,0.19417 -1.57837,-0.0631 0,0 -1.0141823,-0.67102 -1.57836,-0.88389 -0.7047923,-0.26592 -1.4842547,-0.27062 -2.2097104,-0.4735 0,0 -2.476412,-0.7201 -3.72494,-1.04172 -1.287705,-0.33171 -2.711581,-0.28574 -3.88277,-0.91545 -0.432718,-0.23266 -0.635258,-0.78767 -1.07329,-1.01016 0,0 -1.319282,-0.68664 -1.98874,-1.01015 -0.6359,-0.30729 -1.479159,-0.33662 -1.9256,-0.88388 0,0 -0.738723,-0.74266 -0.97858,-1.19956 -0.15788,-0.30074 -0.41121,-0.66359 -0.28411,-0.97858 0,0 0.496847,-1.19455 0.72605,-1.79934 0.367978,-0.97098 0.618649,-1.98748 1.04172,-2.93575 0,0 0.564976,-1.39 0.91545,-2.05188 0.364844,-0.68902 0.901416,-1.28223 1.23112,-1.98874 0,0 0.486623,-1.32168 0.88388,-1.89403 0.496392,-0.71518 2.54783,-1.36859 1.83091,-1.86247 0,0 -1.174468,-0.45891 -1.42053,-0.97859 -0.21689,-0.45807 -0.184889,-1.11516 0.12627,-1.51522 0,0 0.293672,-0.37955 0.44194,-0.56821 0.282296,-0.35919 0.515152,-0.76502 0.85232,-1.07329 0,0 0.740207,-0.66949 1.10485,-1.01015 0.233855,-0.21847 0.445738,-0.46156 0.69448,-0.66292 0,0 1.307087,-0.50499 1.32583,-1.07328 0.0189,-0.57304 -0.689556,-1.1835 -1.2627,-1.16799 0,0 -0.812911,-0.12844 -1.16798,0.0316 -0.590498,0.26615 -0.858584,0.97197 -1.32583,1.42053 0,0 -0.519455,0.51221 -0.78918,0.75762 -0.298,0.27113 -0.553452,0.61233 -0.91545,0.78918 -0.289254,0.14131 -0.94702,0.1894 -0.94702,0.1894 -0.388406,0.0777 -0.583628,0.54179 -0.91545,0.75762 -0.66875,0.43498 -1.342627,0.85761 -1.98874,1.32582 -0.393848,0.28541 -1.13642,0.91545 -1.13642,0.91545 -0.380222,0.30629 -0.888606,0.48347 -1.16799,0.88388 -0.289518,0.41493 -0.198111,1.00878 -0.44194,1.4521 0,0 -0.37641,0.90273 -0.69448,1.26269 -0.404173,0.45741 -1.069643,0.62477 -1.48366,1.07329 0,0 -0.885076,0.73239 -1.13642,1.23112 -0.202473,0.40175 -0.09952,0.90277 -0.25254,1.32583 0,0 -0.286695,1.02095 -0.53665,1.48366 -0.250054,0.4629 -0.60773,0.86058 -0.94701,1.26269 0,0 -0.66805,0.60998 -0.85232,1.01015 -0.245281,0.53267 -0.138773,1.16806 -0.28411,1.7362 0,0 -0.195271,0.91577 -0.34724,1.35739 -0.119592,0.34753 -0.259595,0.69104 -0.44194,1.01015 0,0 -0.356255,0.78198 -0.63134,1.10486 -0.271764,0.31898 -0.697461,0.70759 -1.157161,0.78918 0,0 -1.176869,0.33766 -1.778599,0.31567 -0.683501,-0.025 -1.578367,0.0421 -1.98874,-0.50507 0,0 -0.655165,-0.7059 -0.85231,-1.13642 -0.143508,-0.31339 -0.122874,-0.67973 -0.22097,-1.01016 0,0 -0.436743,-1.337 -0.59978,-2.0203 -0.163822,-0.68659 -0.171378,-1.4092 -0.37881,-2.08344 -0.307903,-1.00081 -0.580121,-1.99639 -0.91545,-2.96732 -0.106357,-0.30795 -0.47351,-0.53665 -0.69448,-0.69448 -0.22097,-0.15784 -1.48192,0.0984 -1.7362,-0.44195 0,0 -0.4946,-0.67802 -0.50507,-1.07328 -0.0081,-0.30667 0.162117,-0.60769 0.34724,-0.85232 0,0 0.658183,-0.73504 0.88388,-1.16799 0.36302,-0.69637 0.471534,-1.49835 0.72605,-2.24127 0.300974,-0.87854 0.516284,-1.79736 0.94701,-2.62009 0.227504,-0.43456 0.615851,-0.76981 0.85232,-1.19955 0.361735,-0.65739 0.8839,-1.79934 0.85232,-2.08344 -0.03158,-0.28411 0.322384,-1.56369 -0.0316,-2.20971 0,0 -0.98414,-1.47399 -1.26269,-2.30441 -0.344996,-1.02851 -0.905558,-2.81895 0.0622,-3.30915 l 0.758546,-0.38422 c 0.428108,-0.21685 -0.75762,-0.85232 -0.88389,-1.13642 -0.12627,-0.28411 -0.173927,-0.71933 -0.34724,-1.04172 -0.234225,-0.4357 -0.66291,-1.04172 -0.91545,-1.16799 -0.25254,-0.12627 -0.737418,-0.32126 -0.82075,-0.66292 l -0.31567,-1.29425 c 0,0 1.16799,-1.5468 1.16799,-1.67307 0,-0.12627 0.0121,-1.73222 0.12627,-2.58851 0,0 0.30157,-0.95619 0.1894,-1.42053 -0.14736,-0.61002 -0.944493,-0.93259 -1.07328,-1.5468 0,0 -0.202832,-1.40881 -0.0086,-2.04646 0.171295,-0.56233 0.572573,-0.84557 0.905547,-1.23112 0.392749,-0.45476 1.691557,-1.0787 1.281187,-1.2681 -0.41038,-0.18941 -0.91545,-0.53665 -1.16799,-0.78919 -0.25254,-0.25253 -0.14645,-0.9413 0.0316,-1.35739 0.175627,-0.41043 0.712309,-0.56727 0.94701,-0.94702 0.157442,-0.25475 0.28411,-0.72604 0.28411,-0.85231 0,-0.12627 -0.783837,-0.49299 -1.10486,-0.82075 -0.406558,-0.41509 -0.85231,-1.26269 -1.01015,-1.42053 -0.15783,-0.15783 -0.240193,-0.93337 -0.53664,-1.29426 0,0 -0.601348,-0.52357 -0.72605,-0.88388 -0.161785,-0.46746 0.394733,-1.14776 0.0316,-1.48366 0,0 -0.998719,-0.65902 -1.26269,-1.16799 -0.146622,-0.28271 -0.329559,-0.70188 -0.12627,-0.94702 0,0 0.624982,-0.9579 1.07329,-1.29426 0.550381,-0.41294 1.70137,-0.1602 1.89403,-0.82075 0,0 0.339462,-0.99918 0.44194,-1.51522 0.09484,-0.47756 -0.06848,-1.02101 0.15784,-1.4521 0,0 0.549117,-0.80114 0.66291,-1.26269 0.08564,-0.34736 0.324834,-0.92337 0,-1.07329 0,0 -0.802755,-0.42405 -1.23112,-0.56821 -0.602509,-0.20277 -1.432904,0.0582 -1.86247,-0.41037 0,0 -0.477834,-0.49223 -0.69448,-0.75762 -0.328761,-0.40272 -0.798551,-0.75613 -0.91545,-1.26269 0,0 -0.702221,-1.8907 -0.66291,-2.87262 0.0446,-1.11394 0.600717,-2.15137 1.01015,-3.18829 0.18841,-0.47716 0.66291,-1.26269 0.66291,-1.38896 0,-0.12627 -0.03082,-1.5136 0.22097,-2.20971 0,0 0.387483,-0.97935 0.53665,-1.48366 0.171578,-0.58008 -0.005,-1.32798 0.41037,-1.76777 l 1.60993,-1.70463 c 0,0 1.26269,-0.78918 1.26269,-0.94702 0,-0.15784 0.41038,-1.38896 0.25254,-1.5468 -0.15784,-0.15783 -1.32582,-1.32582 -1.38896,-1.45209 -0.0631,-0.12627 -0.543267,-1.97897 -0.02167,-2.67781 0,0 0.766775,-1.17726 1.252787,-1.67847 0.411837,-0.42471 0.98275,-0.67476 1.38896,-1.10486 l 0.53665,-0.56821 3.8e-4,4.6e-4 -3e-5,0 c 0,0 9e-6,0 10e-6,0 l 0,-4e-5 z"
       id="path3642"
       sodipodi:nodetypes="czssssssssssssssssssssssssssssssssssssssssssssssssssssssssssssssscssssssssscssczssssssssssssssssssssscssssszssssssssssssssssssssssssssssssssssssssssssssssssssssssssssssssssccssssssssssssssssssszsssssssssssssssssssssssssssssssssssssssssssssssssssssssssssssssssssszsssssssssssssssssssssssssssscsssssssssssssssssssssssssssssssssssssssscssssssssscssssssssssssssssssssssssssssssssssssssssssssscscssscsscssssssszssssssssssssssssssssssssssssssssssssassssssssssssszsssssssssssssssssssssssssssssssssssssssssssssssscssszsssscsssssssssssssssszsssssssssssssssssssszssssssssssssszscsssssssssssssssssssssssssssssssssssssssssssssssszsssssssszssssssssssssssssscsssssssssssssssssssssssssssssssssssssssszzsssssssszssssssszzssssszzsssssssszssssszssssssssssssssssssszssssssssssssssssssssssssssssssssssssssssssssssssssssssssssssssssssssssssssszssssssszsssssszscsssssssssszssssssssssssssssssszssscsssssscccsc" />
  </g>
</svg>
